<?xml version="1.0" encoding="UTF-8" standalone="no"?>
<!DOCTYPE svg PUBLIC "-//W3C//DTD SVG 1.1//EN" "http://www.w3.org/Graphics/SVG/1.1/DTD/svg11.dtd">
<svg width="100%" height="100%" viewBox="0 0 22 23" version="1.1" xmlns="http://www.w3.org/2000/svg" xmlns:xlink="http://www.w3.org/1999/xlink" xml:space="preserve" style="fill-rule:evenodd;clip-rule:evenodd;stroke-linejoin:round;stroke-miterlimit:1.41421;">
    <g id="Shape.-1" transform="matrix(1,0,0,1,-1289,-20.999)">
        <path d="M1310.81,41.878L1305.46,36.533C1306.9,34.884 1307.77,32.732 1307.77,30.381C1307.77,25.205 1303.55,20.999 1298.38,20.999C1293.21,20.999 1289,25.21 1289,30.381C1289,35.551 1293.21,39.761 1298.38,39.761C1300.73,39.761 1302.89,38.892 1304.54,37.458L1309.88,42.805C1310.01,42.932 1310.18,43 1310.35,43C1310.51,43 1310.68,42.937 1310.81,42.805C1311.06,42.552 1311.06,42.131 1310.81,41.878ZM1290.31,30.381C1290.31,25.932 1293.93,22.317 1298.38,22.317C1302.83,22.317 1306.44,25.937 1306.44,30.381C1306.44,34.824 1302.83,38.449 1298.38,38.449C1293.93,38.449 1290.31,34.83 1290.31,30.381Z" style="fill:rgb(119,119,119);fill-rule:nonzero;"/>
    </g>
</svg>
